%TF.GenerationSoftware,KiCad,Pcbnew,(6.0.9-0)*%
%TF.CreationDate,2024-03-23T13:24:55+01:00*%
%TF.ProjectId,pt-delay-minima-footswitch,70742d64-656c-4617-992d-6d696e696d61,rev?*%
%TF.SameCoordinates,Original*%
%TF.FileFunction,Copper,L1,Top*%
%TF.FilePolarity,Positive*%
%FSLAX46Y46*%
G04 Gerber Fmt 4.6, Leading zero omitted, Abs format (unit mm)*
G04 Created by KiCad (PCBNEW (6.0.9-0)) date 2024-03-23 13:24:55*
%MOMM*%
%LPD*%
G01*
G04 APERTURE LIST*
%TA.AperFunction,ComponentPad*%
%ADD10R,3.816000X3.816000*%
%TD*%
%TA.AperFunction,ComponentPad*%
%ADD11O,4.200000X2.800000*%
%TD*%
%TA.AperFunction,ComponentPad*%
%ADD12R,1.700000X1.700000*%
%TD*%
%TA.AperFunction,ComponentPad*%
%ADD13O,1.700000X1.700000*%
%TD*%
%TA.AperFunction,ComponentPad*%
%ADD14R,1.800000X1.800000*%
%TD*%
%TA.AperFunction,ComponentPad*%
%ADD15C,1.800000*%
%TD*%
%TA.AperFunction,ComponentPad*%
%ADD16C,1.600000*%
%TD*%
%TA.AperFunction,ComponentPad*%
%ADD17O,1.600000X1.600000*%
%TD*%
%TA.AperFunction,ViaPad*%
%ADD18C,0.700000*%
%TD*%
G04 APERTURE END LIST*
D10*
%TO.P,SW1,1,A*%
%TO.N,/PedalIn*%
X45200000Y-50800000D03*
D11*
%TO.P,SW1,2,B*%
%TO.N,/PedalOut*%
X45200000Y-55500000D03*
%TO.P,SW1,3,C*%
%TO.N,/Return*%
X45200000Y-60200000D03*
%TO.P,SW1,4,A*%
%TO.N,GND*%
X50280000Y-50800000D03*
%TO.P,SW1,5,B*%
%TO.N,/Send*%
X50280000Y-55500000D03*
%TO.P,SW1,6,C*%
%TO.N,/PedalIn*%
X50280000Y-60200000D03*
%TO.P,SW1,7,A*%
%TO.N,unconnected-(SW1-Pad7)*%
X55360000Y-50800000D03*
%TO.P,SW1,8,B*%
%TO.N,/LED_GND*%
X55360000Y-55500000D03*
%TO.P,SW1,9,C*%
%TO.N,GND*%
X55360000Y-60200000D03*
%TD*%
D12*
%TO.P,J1,1,Pin_1*%
%TO.N,/PedalIn*%
X44018000Y-43688000D03*
D13*
%TO.P,J1,2,Pin_2*%
%TO.N,+9V*%
X46558000Y-43688000D03*
%TO.P,J1,3,Pin_3*%
%TO.N,/Send*%
X49098000Y-43688000D03*
%TO.P,J1,4,Pin_4*%
%TO.N,/PedalOut*%
X51638000Y-43688000D03*
%TO.P,J1,5,Pin_5*%
%TO.N,GND*%
X54178000Y-43688000D03*
%TO.P,J1,6,Pin_6*%
%TO.N,/Return*%
X56718000Y-43688000D03*
%TD*%
D14*
%TO.P,D1,1,K*%
%TO.N,Net-(D1-Pad1)*%
X72280000Y-56770000D03*
D15*
%TO.P,D1,2,A*%
%TO.N,+9V*%
X72280000Y-54230000D03*
%TD*%
D16*
%TO.P,R1,1*%
%TO.N,Net-(D1-Pad1)*%
X62484000Y-63119000D03*
D17*
%TO.P,R1,2*%
%TO.N,/LED_GND*%
X62484000Y-55499000D03*
%TD*%
D18*
%TO.N,GND*%
X60960000Y-48260000D03*
X71120000Y-48260000D03*
X71120000Y-50800000D03*
X66802000Y-53340000D03*
X48260000Y-48260000D03*
X41910000Y-43942000D03*
X63500000Y-53340000D03*
X60960000Y-50800000D03*
X41910000Y-63500000D03*
X73660000Y-50800000D03*
X71120000Y-45720000D03*
X71120000Y-63500000D03*
X63500000Y-48260000D03*
X66802000Y-48260000D03*
X66802000Y-55880000D03*
X73152000Y-63500000D03*
X41910000Y-48260000D03*
X60960000Y-53340000D03*
X71120000Y-58420000D03*
X63500000Y-50800000D03*
X66802000Y-58420000D03*
X66802000Y-50800000D03*
X73660000Y-45720000D03*
X73660000Y-48260000D03*
X66802000Y-45720000D03*
%TD*%
%TA.AperFunction,Conductor*%
%TO.N,GND*%
G36*
X73713621Y-41528502D02*
G01*
X73760114Y-41582158D01*
X73771500Y-41634500D01*
X73771500Y-53521962D01*
X73751498Y-53590083D01*
X73697842Y-53636576D01*
X73627568Y-53646680D01*
X73562988Y-53617186D01*
X73529951Y-53572206D01*
X73527631Y-53566870D01*
X73527629Y-53566866D01*
X73525570Y-53562131D01*
X73399764Y-53367665D01*
X73243887Y-53196358D01*
X73239836Y-53193159D01*
X73239832Y-53193155D01*
X73066177Y-53056011D01*
X73066172Y-53056008D01*
X73062123Y-53052810D01*
X73057607Y-53050317D01*
X73057604Y-53050315D01*
X72863879Y-52943373D01*
X72863875Y-52943371D01*
X72859355Y-52940876D01*
X72854486Y-52939152D01*
X72854482Y-52939150D01*
X72645903Y-52865288D01*
X72645899Y-52865287D01*
X72641028Y-52863562D01*
X72635935Y-52862655D01*
X72635932Y-52862654D01*
X72418095Y-52823851D01*
X72418089Y-52823850D01*
X72413006Y-52822945D01*
X72340096Y-52822054D01*
X72186581Y-52820179D01*
X72186579Y-52820179D01*
X72181411Y-52820116D01*
X71952464Y-52855150D01*
X71732314Y-52927106D01*
X71727726Y-52929494D01*
X71727722Y-52929496D01*
X71665492Y-52961891D01*
X71526872Y-53034052D01*
X71522739Y-53037155D01*
X71522736Y-53037157D01*
X71345790Y-53170012D01*
X71341655Y-53173117D01*
X71181639Y-53340564D01*
X71178725Y-53344836D01*
X71178724Y-53344837D01*
X71163152Y-53367665D01*
X71051119Y-53531899D01*
X70953602Y-53741981D01*
X70891707Y-53965169D01*
X70867095Y-54195469D01*
X70867392Y-54200622D01*
X70867392Y-54200625D01*
X70876849Y-54364634D01*
X70880427Y-54426697D01*
X70881564Y-54431743D01*
X70881565Y-54431749D01*
X70903408Y-54528671D01*
X70931346Y-54652642D01*
X70933288Y-54657424D01*
X70933289Y-54657428D01*
X71002044Y-54826751D01*
X71018484Y-54867237D01*
X71139501Y-55064719D01*
X71142882Y-55068622D01*
X71251304Y-55193788D01*
X71280786Y-55258373D01*
X71270671Y-55328646D01*
X71224170Y-55382294D01*
X71200296Y-55394267D01*
X71144515Y-55415179D01*
X71133295Y-55419385D01*
X71016739Y-55506739D01*
X70929385Y-55623295D01*
X70878255Y-55759684D01*
X70871500Y-55821866D01*
X70871500Y-57718134D01*
X70878255Y-57780316D01*
X70929385Y-57916705D01*
X71016739Y-58033261D01*
X71133295Y-58120615D01*
X71269684Y-58171745D01*
X71331866Y-58178500D01*
X73228134Y-58178500D01*
X73290316Y-58171745D01*
X73426705Y-58120615D01*
X73543261Y-58033261D01*
X73548642Y-58026081D01*
X73554992Y-58019731D01*
X73557239Y-58021978D01*
X73601544Y-57988857D01*
X73672363Y-57983838D01*
X73734653Y-58017903D01*
X73768638Y-58080238D01*
X73771500Y-58106941D01*
X73771500Y-64365500D01*
X73751498Y-64433621D01*
X73697842Y-64480114D01*
X73645500Y-64491500D01*
X63203037Y-64491500D01*
X63134916Y-64471498D01*
X63088423Y-64417842D01*
X63078319Y-64347568D01*
X63107813Y-64282988D01*
X63138714Y-64257472D01*
X63140749Y-64256523D01*
X63145258Y-64253366D01*
X63323789Y-64128357D01*
X63323792Y-64128355D01*
X63328300Y-64125198D01*
X63490198Y-63963300D01*
X63621523Y-63775749D01*
X63623846Y-63770767D01*
X63623849Y-63770762D01*
X63715961Y-63573225D01*
X63715961Y-63573224D01*
X63718284Y-63568243D01*
X63777543Y-63347087D01*
X63797498Y-63119000D01*
X63777543Y-62890913D01*
X63718284Y-62669757D01*
X63715961Y-62664775D01*
X63623849Y-62467238D01*
X63623846Y-62467233D01*
X63621523Y-62462251D01*
X63490198Y-62274700D01*
X63328300Y-62112802D01*
X63323792Y-62109645D01*
X63323789Y-62109643D01*
X63216268Y-62034356D01*
X63140749Y-61981477D01*
X63135767Y-61979154D01*
X63135762Y-61979151D01*
X62938225Y-61887039D01*
X62938224Y-61887039D01*
X62933243Y-61884716D01*
X62927935Y-61883294D01*
X62927933Y-61883293D01*
X62717402Y-61826881D01*
X62717400Y-61826881D01*
X62712087Y-61825457D01*
X62484000Y-61805502D01*
X62255913Y-61825457D01*
X62250600Y-61826881D01*
X62250598Y-61826881D01*
X62040067Y-61883293D01*
X62040065Y-61883294D01*
X62034757Y-61884716D01*
X62029776Y-61887039D01*
X62029775Y-61887039D01*
X61832238Y-61979151D01*
X61832233Y-61979154D01*
X61827251Y-61981477D01*
X61751732Y-62034356D01*
X61644211Y-62109643D01*
X61644208Y-62109645D01*
X61639700Y-62112802D01*
X61477802Y-62274700D01*
X61346477Y-62462251D01*
X61344154Y-62467233D01*
X61344151Y-62467238D01*
X61252039Y-62664775D01*
X61249716Y-62669757D01*
X61190457Y-62890913D01*
X61170502Y-63119000D01*
X61190457Y-63347087D01*
X61249716Y-63568243D01*
X61252039Y-63573224D01*
X61252039Y-63573225D01*
X61344151Y-63770762D01*
X61344154Y-63770767D01*
X61346477Y-63775749D01*
X61477802Y-63963300D01*
X61639700Y-64125198D01*
X61644208Y-64128355D01*
X61644211Y-64128357D01*
X61822742Y-64253366D01*
X61827251Y-64256523D01*
X61828780Y-64257236D01*
X61876958Y-64307766D01*
X61890392Y-64377480D01*
X61864004Y-64443390D01*
X61806171Y-64484571D01*
X61764963Y-64491500D01*
X40914500Y-64491500D01*
X40846379Y-64471498D01*
X40799886Y-64417842D01*
X40788500Y-64365500D01*
X40788500Y-60243415D01*
X42586888Y-60243415D01*
X42613193Y-60519130D01*
X42614278Y-60523564D01*
X42614279Y-60523570D01*
X42659684Y-60709124D01*
X42679024Y-60788159D01*
X42680736Y-60792385D01*
X42680737Y-60792389D01*
X42753612Y-60972307D01*
X42783002Y-61044868D01*
X42922948Y-61283878D01*
X43095931Y-61500182D01*
X43298327Y-61689250D01*
X43525896Y-61847120D01*
X43601467Y-61884716D01*
X43769784Y-61968453D01*
X43769787Y-61968454D01*
X43773871Y-61970486D01*
X43778210Y-61971908D01*
X43778209Y-61971908D01*
X44032724Y-62055343D01*
X44032730Y-62055344D01*
X44037057Y-62056763D01*
X44041548Y-62057543D01*
X44041549Y-62057543D01*
X44306160Y-62103487D01*
X44306168Y-62103488D01*
X44309941Y-62104143D01*
X44313778Y-62104334D01*
X44395887Y-62108422D01*
X44395895Y-62108422D01*
X44397458Y-62108500D01*
X45970356Y-62108500D01*
X45972624Y-62108335D01*
X45972636Y-62108335D01*
X46091791Y-62099689D01*
X46176241Y-62093561D01*
X46339383Y-62057543D01*
X46442235Y-62034836D01*
X46442239Y-62034835D01*
X46446695Y-62033851D01*
X46620537Y-61967988D01*
X46701426Y-61937342D01*
X46701429Y-61937341D01*
X46705696Y-61935724D01*
X46905076Y-61824978D01*
X46943827Y-61803454D01*
X46943828Y-61803453D01*
X46947820Y-61801236D01*
X47167993Y-61633205D01*
X47171555Y-61629562D01*
X47358409Y-61438419D01*
X47361604Y-61435151D01*
X47524596Y-61211222D01*
X47627485Y-61015663D01*
X47676904Y-60964691D01*
X47746037Y-60948528D01*
X47812933Y-60972307D01*
X47855777Y-61027031D01*
X47863002Y-61044868D01*
X48002948Y-61283878D01*
X48175931Y-61500182D01*
X48378327Y-61689250D01*
X48605896Y-61847120D01*
X48681467Y-61884716D01*
X48849784Y-61968453D01*
X48849787Y-61968454D01*
X48853871Y-61970486D01*
X48858210Y-61971908D01*
X48858209Y-61971908D01*
X49112724Y-62055343D01*
X49112730Y-62055344D01*
X49117057Y-62056763D01*
X49121548Y-62057543D01*
X49121549Y-62057543D01*
X49386160Y-62103487D01*
X49386168Y-62103488D01*
X49389941Y-62104143D01*
X49393778Y-62104334D01*
X49475887Y-62108422D01*
X49475895Y-62108422D01*
X49477458Y-62108500D01*
X51050356Y-62108500D01*
X51052624Y-62108335D01*
X51052636Y-62108335D01*
X51171791Y-62099689D01*
X51256241Y-62093561D01*
X51419383Y-62057543D01*
X51522235Y-62034836D01*
X51522239Y-62034835D01*
X51526695Y-62033851D01*
X51700537Y-61967988D01*
X51781426Y-61937342D01*
X51781429Y-61937341D01*
X51785696Y-61935724D01*
X51985076Y-61824978D01*
X52023827Y-61803454D01*
X52023828Y-61803453D01*
X52027820Y-61801236D01*
X52247993Y-61633205D01*
X52251555Y-61629562D01*
X52438409Y-61438419D01*
X52441604Y-61435151D01*
X52604596Y-61211222D01*
X52707789Y-61015085D01*
X52757208Y-60964113D01*
X52826341Y-60947950D01*
X52893237Y-60971729D01*
X52936081Y-61026451D01*
X52941737Y-61040414D01*
X52945758Y-61048588D01*
X53081055Y-61279656D01*
X53086211Y-61287157D01*
X53253446Y-61496276D01*
X53259635Y-61502959D01*
X53455305Y-61685743D01*
X53462394Y-61691463D01*
X53682403Y-61844089D01*
X53690236Y-61848721D01*
X53929973Y-61967988D01*
X53938398Y-61971444D01*
X54192845Y-62054857D01*
X54201670Y-62057057D01*
X54466210Y-62102989D01*
X54473828Y-62103836D01*
X54555902Y-62107922D01*
X54559043Y-62108000D01*
X55087885Y-62108000D01*
X55103124Y-62103525D01*
X55104329Y-62102135D01*
X55106000Y-62094452D01*
X55106000Y-62089885D01*
X55614000Y-62089885D01*
X55618475Y-62105124D01*
X55619865Y-62106329D01*
X55627548Y-62108000D01*
X56128053Y-62108000D01*
X56132624Y-62107835D01*
X56331617Y-62093396D01*
X56340626Y-62092082D01*
X56602092Y-62034356D01*
X56610822Y-62031753D01*
X56861215Y-61936888D01*
X56869476Y-61933053D01*
X57103552Y-61803035D01*
X57111177Y-61798045D01*
X57324029Y-61635602D01*
X57330856Y-61629562D01*
X57518026Y-61438096D01*
X57523907Y-61431137D01*
X57681482Y-61214652D01*
X57686302Y-61206906D01*
X57810969Y-60969953D01*
X57814618Y-60961601D01*
X57903778Y-60709124D01*
X57906181Y-60700340D01*
X57951231Y-60471775D01*
X57950052Y-60458862D01*
X57934951Y-60454000D01*
X55632115Y-60454000D01*
X55616876Y-60458475D01*
X55615671Y-60459865D01*
X55614000Y-60467548D01*
X55614000Y-62089885D01*
X55106000Y-62089885D01*
X55106000Y-59927885D01*
X55614000Y-59927885D01*
X55618475Y-59943124D01*
X55619865Y-59944329D01*
X55627548Y-59946000D01*
X57934404Y-59946000D01*
X57948881Y-59941749D01*
X57950944Y-59929488D01*
X57946747Y-59885506D01*
X57945227Y-59876514D01*
X57881584Y-59616429D01*
X57878786Y-59607765D01*
X57778264Y-59359586D01*
X57774242Y-59351412D01*
X57638945Y-59120344D01*
X57633789Y-59112843D01*
X57466554Y-58903724D01*
X57460365Y-58897041D01*
X57264695Y-58714257D01*
X57257606Y-58708537D01*
X57037597Y-58555911D01*
X57029764Y-58551279D01*
X56790027Y-58432012D01*
X56781602Y-58428556D01*
X56527155Y-58345143D01*
X56518330Y-58342943D01*
X56253790Y-58297011D01*
X56246172Y-58296164D01*
X56164098Y-58292078D01*
X56160957Y-58292000D01*
X55632115Y-58292000D01*
X55616876Y-58296475D01*
X55615671Y-58297865D01*
X55614000Y-58305548D01*
X55614000Y-59927885D01*
X55106000Y-59927885D01*
X55106000Y-58310115D01*
X55101525Y-58294876D01*
X55100135Y-58293671D01*
X55092452Y-58292000D01*
X54591947Y-58292000D01*
X54587376Y-58292165D01*
X54388383Y-58306604D01*
X54379374Y-58307918D01*
X54117908Y-58365644D01*
X54109178Y-58368247D01*
X53858785Y-58463112D01*
X53850524Y-58466947D01*
X53616448Y-58596965D01*
X53608823Y-58601955D01*
X53395971Y-58764398D01*
X53389144Y-58770438D01*
X53201974Y-58961904D01*
X53196093Y-58968863D01*
X53038518Y-59185348D01*
X53033698Y-59193094D01*
X52932761Y-59384943D01*
X52883342Y-59435916D01*
X52814209Y-59452079D01*
X52747313Y-59428300D01*
X52704469Y-59373578D01*
X52696998Y-59355132D01*
X52557052Y-59116122D01*
X52384069Y-58899818D01*
X52181673Y-58710750D01*
X51954104Y-58552880D01*
X51772751Y-58462658D01*
X51710216Y-58431547D01*
X51710213Y-58431546D01*
X51706129Y-58429514D01*
X51665245Y-58416112D01*
X51447276Y-58344657D01*
X51447270Y-58344656D01*
X51442943Y-58343237D01*
X51438451Y-58342457D01*
X51173840Y-58296513D01*
X51173832Y-58296512D01*
X51170059Y-58295857D01*
X51157996Y-58295256D01*
X51084113Y-58291578D01*
X51084105Y-58291578D01*
X51082542Y-58291500D01*
X49509644Y-58291500D01*
X49507376Y-58291665D01*
X49507364Y-58291665D01*
X49388209Y-58300311D01*
X49303759Y-58306439D01*
X49168532Y-58336294D01*
X49037765Y-58365164D01*
X49037761Y-58365165D01*
X49033305Y-58366149D01*
X48903804Y-58415213D01*
X48778574Y-58462658D01*
X48778571Y-58462659D01*
X48774304Y-58464276D01*
X48532180Y-58598764D01*
X48312007Y-58766795D01*
X48308814Y-58770061D01*
X48308812Y-58770063D01*
X48215201Y-58865822D01*
X48118396Y-58964849D01*
X47955404Y-59188778D01*
X47953276Y-59192823D01*
X47852515Y-59384337D01*
X47803096Y-59435309D01*
X47733963Y-59451472D01*
X47667067Y-59427693D01*
X47624222Y-59372968D01*
X47618711Y-59359362D01*
X47618709Y-59359357D01*
X47616998Y-59355132D01*
X47477052Y-59116122D01*
X47304069Y-58899818D01*
X47101673Y-58710750D01*
X46874104Y-58552880D01*
X46692751Y-58462658D01*
X46630216Y-58431547D01*
X46630213Y-58431546D01*
X46626129Y-58429514D01*
X46585245Y-58416112D01*
X46367276Y-58344657D01*
X46367270Y-58344656D01*
X46362943Y-58343237D01*
X46358451Y-58342457D01*
X46093840Y-58296513D01*
X46093832Y-58296512D01*
X46090059Y-58295857D01*
X46077996Y-58295256D01*
X46004113Y-58291578D01*
X46004105Y-58291578D01*
X46002542Y-58291500D01*
X44429644Y-58291500D01*
X44427376Y-58291665D01*
X44427364Y-58291665D01*
X44308209Y-58300311D01*
X44223759Y-58306439D01*
X44088532Y-58336294D01*
X43957765Y-58365164D01*
X43957761Y-58365165D01*
X43953305Y-58366149D01*
X43823804Y-58415213D01*
X43698574Y-58462658D01*
X43698571Y-58462659D01*
X43694304Y-58464276D01*
X43452180Y-58598764D01*
X43232007Y-58766795D01*
X43228814Y-58770061D01*
X43228812Y-58770063D01*
X43135201Y-58865822D01*
X43038396Y-58964849D01*
X42875404Y-59188778D01*
X42746444Y-59433890D01*
X42744926Y-59438188D01*
X42744924Y-59438193D01*
X42685042Y-59607765D01*
X42654218Y-59695051D01*
X42600659Y-59966790D01*
X42600432Y-59971347D01*
X42600432Y-59971348D01*
X42591211Y-60156585D01*
X42586888Y-60243415D01*
X40788500Y-60243415D01*
X40788500Y-55543415D01*
X42586888Y-55543415D01*
X42613193Y-55819130D01*
X42614278Y-55823564D01*
X42614279Y-55823570D01*
X42661577Y-56016858D01*
X42679024Y-56088159D01*
X42680736Y-56092385D01*
X42680737Y-56092389D01*
X42743980Y-56248528D01*
X42783002Y-56344868D01*
X42922948Y-56583878D01*
X43095931Y-56800182D01*
X43298327Y-56989250D01*
X43525896Y-57147120D01*
X43654385Y-57211043D01*
X43769784Y-57268453D01*
X43769787Y-57268454D01*
X43773871Y-57270486D01*
X43778210Y-57271908D01*
X43778209Y-57271908D01*
X44032724Y-57355343D01*
X44032730Y-57355344D01*
X44037057Y-57356763D01*
X44041548Y-57357543D01*
X44041549Y-57357543D01*
X44306160Y-57403487D01*
X44306168Y-57403488D01*
X44309941Y-57404143D01*
X44313778Y-57404334D01*
X44395887Y-57408422D01*
X44395895Y-57408422D01*
X44397458Y-57408500D01*
X45970356Y-57408500D01*
X45972624Y-57408335D01*
X45972636Y-57408335D01*
X46091791Y-57399689D01*
X46176241Y-57393561D01*
X46349348Y-57355343D01*
X46442235Y-57334836D01*
X46442239Y-57334835D01*
X46446695Y-57333851D01*
X46619310Y-57268453D01*
X46701426Y-57237342D01*
X46701429Y-57237341D01*
X46705696Y-57235724D01*
X46947820Y-57101236D01*
X47167993Y-56933205D01*
X47361604Y-56735151D01*
X47524596Y-56511222D01*
X47627485Y-56315663D01*
X47676904Y-56264691D01*
X47746037Y-56248528D01*
X47812933Y-56272307D01*
X47855777Y-56327031D01*
X47863002Y-56344868D01*
X48002948Y-56583878D01*
X48175931Y-56800182D01*
X48378327Y-56989250D01*
X48605896Y-57147120D01*
X48734385Y-57211043D01*
X48849784Y-57268453D01*
X48849787Y-57268454D01*
X48853871Y-57270486D01*
X48858210Y-57271908D01*
X48858209Y-57271908D01*
X49112724Y-57355343D01*
X49112730Y-57355344D01*
X49117057Y-57356763D01*
X49121548Y-57357543D01*
X49121549Y-57357543D01*
X49386160Y-57403487D01*
X49386168Y-57403488D01*
X49389941Y-57404143D01*
X49393778Y-57404334D01*
X49475887Y-57408422D01*
X49475895Y-57408422D01*
X49477458Y-57408500D01*
X51050356Y-57408500D01*
X51052624Y-57408335D01*
X51052636Y-57408335D01*
X51171791Y-57399689D01*
X51256241Y-57393561D01*
X51429348Y-57355343D01*
X51522235Y-57334836D01*
X51522239Y-57334835D01*
X51526695Y-57333851D01*
X51699310Y-57268453D01*
X51781426Y-57237342D01*
X51781429Y-57237341D01*
X51785696Y-57235724D01*
X52027820Y-57101236D01*
X52247993Y-56933205D01*
X52441604Y-56735151D01*
X52604596Y-56511222D01*
X52707485Y-56315663D01*
X52756904Y-56264691D01*
X52826037Y-56248528D01*
X52892933Y-56272307D01*
X52935777Y-56327031D01*
X52943002Y-56344868D01*
X53082948Y-56583878D01*
X53255931Y-56800182D01*
X53458327Y-56989250D01*
X53685896Y-57147120D01*
X53814385Y-57211043D01*
X53929784Y-57268453D01*
X53929787Y-57268454D01*
X53933871Y-57270486D01*
X53938210Y-57271908D01*
X53938209Y-57271908D01*
X54192724Y-57355343D01*
X54192730Y-57355344D01*
X54197057Y-57356763D01*
X54201548Y-57357543D01*
X54201549Y-57357543D01*
X54466160Y-57403487D01*
X54466168Y-57403488D01*
X54469941Y-57404143D01*
X54473778Y-57404334D01*
X54555887Y-57408422D01*
X54555895Y-57408422D01*
X54557458Y-57408500D01*
X56130356Y-57408500D01*
X56132624Y-57408335D01*
X56132636Y-57408335D01*
X56251791Y-57399689D01*
X56336241Y-57393561D01*
X56509348Y-57355343D01*
X56602235Y-57334836D01*
X56602239Y-57334835D01*
X56606695Y-57333851D01*
X56779310Y-57268453D01*
X56861426Y-57237342D01*
X56861429Y-57237341D01*
X56865696Y-57235724D01*
X57107820Y-57101236D01*
X57327993Y-56933205D01*
X57521604Y-56735151D01*
X57684596Y-56511222D01*
X57813556Y-56266110D01*
X57905782Y-56004949D01*
X57959341Y-55733210D01*
X57965171Y-55616109D01*
X57971001Y-55499000D01*
X61170502Y-55499000D01*
X61190457Y-55727087D01*
X61249716Y-55948243D01*
X61252039Y-55953224D01*
X61252039Y-55953225D01*
X61344151Y-56150762D01*
X61344154Y-56150767D01*
X61346477Y-56155749D01*
X61477802Y-56343300D01*
X61639700Y-56505198D01*
X61644208Y-56508355D01*
X61644211Y-56508357D01*
X61722389Y-56563098D01*
X61827251Y-56636523D01*
X61832233Y-56638846D01*
X61832238Y-56638849D01*
X62029775Y-56730961D01*
X62034757Y-56733284D01*
X62040065Y-56734706D01*
X62040067Y-56734707D01*
X62250598Y-56791119D01*
X62250600Y-56791119D01*
X62255913Y-56792543D01*
X62484000Y-56812498D01*
X62712087Y-56792543D01*
X62717400Y-56791119D01*
X62717402Y-56791119D01*
X62927933Y-56734707D01*
X62927935Y-56734706D01*
X62933243Y-56733284D01*
X62938225Y-56730961D01*
X63135762Y-56638849D01*
X63135767Y-56638846D01*
X63140749Y-56636523D01*
X63245611Y-56563098D01*
X63323789Y-56508357D01*
X63323792Y-56508355D01*
X63328300Y-56505198D01*
X63490198Y-56343300D01*
X63621523Y-56155749D01*
X63623846Y-56150767D01*
X63623849Y-56150762D01*
X63715961Y-55953225D01*
X63715961Y-55953224D01*
X63718284Y-55948243D01*
X63777543Y-55727087D01*
X63797498Y-55499000D01*
X63777543Y-55270913D01*
X63718284Y-55049757D01*
X63694862Y-54999528D01*
X63623849Y-54847238D01*
X63623846Y-54847233D01*
X63621523Y-54842251D01*
X63510950Y-54684337D01*
X63493357Y-54659211D01*
X63493355Y-54659208D01*
X63490198Y-54654700D01*
X63328300Y-54492802D01*
X63323792Y-54489645D01*
X63323789Y-54489643D01*
X63241108Y-54431749D01*
X63140749Y-54361477D01*
X63135767Y-54359154D01*
X63135762Y-54359151D01*
X62938225Y-54267039D01*
X62938224Y-54267039D01*
X62933243Y-54264716D01*
X62927935Y-54263294D01*
X62927933Y-54263293D01*
X62717402Y-54206881D01*
X62717400Y-54206881D01*
X62712087Y-54205457D01*
X62484000Y-54185502D01*
X62255913Y-54205457D01*
X62250600Y-54206881D01*
X62250598Y-54206881D01*
X62040067Y-54263293D01*
X62040065Y-54263294D01*
X62034757Y-54264716D01*
X62029776Y-54267039D01*
X62029775Y-54267039D01*
X61832238Y-54359151D01*
X61832233Y-54359154D01*
X61827251Y-54361477D01*
X61726892Y-54431749D01*
X61644211Y-54489643D01*
X61644208Y-54489645D01*
X61639700Y-54492802D01*
X61477802Y-54654700D01*
X61474645Y-54659208D01*
X61474643Y-54659211D01*
X61457050Y-54684337D01*
X61346477Y-54842251D01*
X61344154Y-54847233D01*
X61344151Y-54847238D01*
X61273138Y-54999528D01*
X61249716Y-55049757D01*
X61190457Y-55270913D01*
X61170502Y-55499000D01*
X57971001Y-55499000D01*
X57972885Y-55461154D01*
X57972885Y-55461148D01*
X57973112Y-55456585D01*
X57946807Y-55180870D01*
X57901338Y-54995051D01*
X57882061Y-54916275D01*
X57880976Y-54911841D01*
X57864694Y-54871641D01*
X57778711Y-54659361D01*
X57778711Y-54659360D01*
X57776998Y-54655132D01*
X57637052Y-54416122D01*
X57488206Y-54230000D01*
X57466921Y-54203384D01*
X57466920Y-54203382D01*
X57464069Y-54199818D01*
X57261673Y-54010750D01*
X57034104Y-53852880D01*
X56811189Y-53741981D01*
X56790216Y-53731547D01*
X56790213Y-53731546D01*
X56786129Y-53729514D01*
X56745245Y-53716112D01*
X56527276Y-53644657D01*
X56527270Y-53644656D01*
X56522943Y-53643237D01*
X56518451Y-53642457D01*
X56253840Y-53596513D01*
X56253832Y-53596512D01*
X56250059Y-53595857D01*
X56237996Y-53595256D01*
X56164113Y-53591578D01*
X56164105Y-53591578D01*
X56162542Y-53591500D01*
X54589644Y-53591500D01*
X54587376Y-53591665D01*
X54587364Y-53591665D01*
X54468209Y-53600311D01*
X54383759Y-53606439D01*
X54248532Y-53636294D01*
X54117765Y-53665164D01*
X54117761Y-53665165D01*
X54113305Y-53666149D01*
X53983804Y-53715213D01*
X53858574Y-53762658D01*
X53858571Y-53762659D01*
X53854304Y-53764276D01*
X53612180Y-53898764D01*
X53392007Y-54066795D01*
X53198396Y-54264849D01*
X53035404Y-54488778D01*
X53033276Y-54492823D01*
X52932515Y-54684337D01*
X52883096Y-54735309D01*
X52813963Y-54751472D01*
X52747067Y-54727693D01*
X52704222Y-54672968D01*
X52698711Y-54659362D01*
X52698711Y-54659361D01*
X52696998Y-54655132D01*
X52557052Y-54416122D01*
X52408206Y-54230000D01*
X52386921Y-54203384D01*
X52386920Y-54203382D01*
X52384069Y-54199818D01*
X52181673Y-54010750D01*
X51954104Y-53852880D01*
X51731189Y-53741981D01*
X51710216Y-53731547D01*
X51710213Y-53731546D01*
X51706129Y-53729514D01*
X51665245Y-53716112D01*
X51447276Y-53644657D01*
X51447270Y-53644656D01*
X51442943Y-53643237D01*
X51438451Y-53642457D01*
X51173840Y-53596513D01*
X51173832Y-53596512D01*
X51170059Y-53595857D01*
X51157996Y-53595256D01*
X51084113Y-53591578D01*
X51084105Y-53591578D01*
X51082542Y-53591500D01*
X49509644Y-53591500D01*
X49507376Y-53591665D01*
X49507364Y-53591665D01*
X49388209Y-53600311D01*
X49303759Y-53606439D01*
X49168532Y-53636294D01*
X49037765Y-53665164D01*
X49037761Y-53665165D01*
X49033305Y-53666149D01*
X48903804Y-53715213D01*
X48778574Y-53762658D01*
X48778571Y-53762659D01*
X48774304Y-53764276D01*
X48532180Y-53898764D01*
X48312007Y-54066795D01*
X48118396Y-54264849D01*
X47955404Y-54488778D01*
X47953276Y-54492823D01*
X47852515Y-54684337D01*
X47803096Y-54735309D01*
X47733963Y-54751472D01*
X47667067Y-54727693D01*
X47624222Y-54672968D01*
X47618711Y-54659362D01*
X47618711Y-54659361D01*
X47616998Y-54655132D01*
X47477052Y-54416122D01*
X47328206Y-54230000D01*
X47306921Y-54203384D01*
X47306920Y-54203382D01*
X47304069Y-54199818D01*
X47101673Y-54010750D01*
X46874104Y-53852880D01*
X46651189Y-53741981D01*
X46630216Y-53731547D01*
X46630213Y-53731546D01*
X46626129Y-53729514D01*
X46585245Y-53716112D01*
X46367276Y-53644657D01*
X46367270Y-53644656D01*
X46362943Y-53643237D01*
X46358451Y-53642457D01*
X46093840Y-53596513D01*
X46093832Y-53596512D01*
X46090059Y-53595857D01*
X46077996Y-53595256D01*
X46004113Y-53591578D01*
X46004105Y-53591578D01*
X46002542Y-53591500D01*
X44429644Y-53591500D01*
X44427376Y-53591665D01*
X44427364Y-53591665D01*
X44308209Y-53600311D01*
X44223759Y-53606439D01*
X44088532Y-53636294D01*
X43957765Y-53665164D01*
X43957761Y-53665165D01*
X43953305Y-53666149D01*
X43823804Y-53715213D01*
X43698574Y-53762658D01*
X43698571Y-53762659D01*
X43694304Y-53764276D01*
X43452180Y-53898764D01*
X43232007Y-54066795D01*
X43038396Y-54264849D01*
X42875404Y-54488778D01*
X42746444Y-54733890D01*
X42744926Y-54738188D01*
X42744924Y-54738193D01*
X42685096Y-54907611D01*
X42654218Y-54995051D01*
X42600659Y-55266790D01*
X42600432Y-55271347D01*
X42600432Y-55271348D01*
X42588054Y-55519995D01*
X42586888Y-55543415D01*
X40788500Y-55543415D01*
X40788500Y-52756134D01*
X42783500Y-52756134D01*
X42790255Y-52818316D01*
X42841385Y-52954705D01*
X42928739Y-53071261D01*
X43045295Y-53158615D01*
X43181684Y-53209745D01*
X43243866Y-53216500D01*
X47156134Y-53216500D01*
X47218316Y-53209745D01*
X47354705Y-53158615D01*
X47471261Y-53071261D01*
X47558615Y-52954705D01*
X47609745Y-52818316D01*
X47616500Y-52756134D01*
X47616500Y-51681661D01*
X47636502Y-51613540D01*
X47690158Y-51567047D01*
X47760432Y-51556943D01*
X47825012Y-51586437D01*
X47859284Y-51634359D01*
X47861737Y-51640414D01*
X47865758Y-51648588D01*
X48001055Y-51879656D01*
X48006211Y-51887157D01*
X48173446Y-52096276D01*
X48179635Y-52102959D01*
X48375305Y-52285743D01*
X48382394Y-52291463D01*
X48602403Y-52444089D01*
X48610236Y-52448721D01*
X48849973Y-52567988D01*
X48858398Y-52571444D01*
X49112845Y-52654857D01*
X49121670Y-52657057D01*
X49386210Y-52702989D01*
X49393828Y-52703836D01*
X49475902Y-52707922D01*
X49479043Y-52708000D01*
X50007885Y-52708000D01*
X50023124Y-52703525D01*
X50024329Y-52702135D01*
X50026000Y-52694452D01*
X50026000Y-52689885D01*
X50534000Y-52689885D01*
X50538475Y-52705124D01*
X50539865Y-52706329D01*
X50547548Y-52708000D01*
X51048053Y-52708000D01*
X51052624Y-52707835D01*
X51251617Y-52693396D01*
X51260626Y-52692082D01*
X51522092Y-52634356D01*
X51530822Y-52631753D01*
X51781215Y-52536888D01*
X51789476Y-52533053D01*
X52023552Y-52403035D01*
X52031177Y-52398045D01*
X52244029Y-52235602D01*
X52250856Y-52229562D01*
X52438026Y-52038096D01*
X52443907Y-52031137D01*
X52601482Y-51814652D01*
X52606302Y-51806906D01*
X52707239Y-51615057D01*
X52756658Y-51564084D01*
X52825791Y-51547921D01*
X52892687Y-51571700D01*
X52935531Y-51626422D01*
X52943002Y-51644868D01*
X53082948Y-51883878D01*
X53255931Y-52100182D01*
X53458327Y-52289250D01*
X53685896Y-52447120D01*
X53814385Y-52511043D01*
X53929784Y-52568453D01*
X53929787Y-52568454D01*
X53933871Y-52570486D01*
X53938210Y-52571908D01*
X53938209Y-52571908D01*
X54192724Y-52655343D01*
X54192730Y-52655344D01*
X54197057Y-52656763D01*
X54201548Y-52657543D01*
X54201549Y-52657543D01*
X54466160Y-52703487D01*
X54466168Y-52703488D01*
X54469941Y-52704143D01*
X54473778Y-52704334D01*
X54555887Y-52708422D01*
X54555895Y-52708422D01*
X54557458Y-52708500D01*
X56130356Y-52708500D01*
X56132624Y-52708335D01*
X56132636Y-52708335D01*
X56251791Y-52699689D01*
X56336241Y-52693561D01*
X56499383Y-52657543D01*
X56602235Y-52634836D01*
X56602239Y-52634835D01*
X56606695Y-52633851D01*
X56780537Y-52567988D01*
X56861426Y-52537342D01*
X56861429Y-52537341D01*
X56865696Y-52535724D01*
X57107820Y-52401236D01*
X57327993Y-52233205D01*
X57331555Y-52229562D01*
X57518409Y-52038419D01*
X57521604Y-52035151D01*
X57684596Y-51811222D01*
X57813556Y-51566110D01*
X57816794Y-51556943D01*
X57904261Y-51309256D01*
X57905782Y-51304949D01*
X57959341Y-51033210D01*
X57959568Y-51028652D01*
X57972885Y-50761154D01*
X57972885Y-50761148D01*
X57973112Y-50756585D01*
X57946807Y-50480870D01*
X57901338Y-50295051D01*
X57882061Y-50216275D01*
X57880976Y-50211841D01*
X57806623Y-50028271D01*
X57778711Y-49959361D01*
X57778711Y-49959360D01*
X57776998Y-49955132D01*
X57637052Y-49716122D01*
X57464069Y-49499818D01*
X57261673Y-49310750D01*
X57034104Y-49152880D01*
X56852751Y-49062658D01*
X56790216Y-49031547D01*
X56790213Y-49031546D01*
X56786129Y-49029514D01*
X56745245Y-49016112D01*
X56527276Y-48944657D01*
X56527270Y-48944656D01*
X56522943Y-48943237D01*
X56518451Y-48942457D01*
X56253840Y-48896513D01*
X56253832Y-48896512D01*
X56250059Y-48895857D01*
X56237996Y-48895256D01*
X56164113Y-48891578D01*
X56164105Y-48891578D01*
X56162542Y-48891500D01*
X54589644Y-48891500D01*
X54587376Y-48891665D01*
X54587364Y-48891665D01*
X54468209Y-48900311D01*
X54383759Y-48906439D01*
X54248532Y-48936294D01*
X54117765Y-48965164D01*
X54117761Y-48965165D01*
X54113305Y-48966149D01*
X53983805Y-49015212D01*
X53858574Y-49062658D01*
X53858571Y-49062659D01*
X53854304Y-49064276D01*
X53612180Y-49198764D01*
X53392007Y-49366795D01*
X53388814Y-49370061D01*
X53388812Y-49370063D01*
X53295202Y-49465822D01*
X53198396Y-49564849D01*
X53035404Y-49788778D01*
X53033276Y-49792823D01*
X52932211Y-49984915D01*
X52882792Y-50035887D01*
X52813659Y-50052050D01*
X52746763Y-50028271D01*
X52703919Y-49973549D01*
X52698263Y-49959586D01*
X52694242Y-49951412D01*
X52558945Y-49720344D01*
X52553789Y-49712843D01*
X52386554Y-49503724D01*
X52380365Y-49497041D01*
X52184695Y-49314257D01*
X52177606Y-49308537D01*
X51957597Y-49155911D01*
X51949764Y-49151279D01*
X51710027Y-49032012D01*
X51701602Y-49028556D01*
X51447155Y-48945143D01*
X51438330Y-48942943D01*
X51173790Y-48897011D01*
X51166172Y-48896164D01*
X51084098Y-48892078D01*
X51080957Y-48892000D01*
X50552115Y-48892000D01*
X50536876Y-48896475D01*
X50535671Y-48897865D01*
X50534000Y-48905548D01*
X50534000Y-52689885D01*
X50026000Y-52689885D01*
X50026000Y-48910115D01*
X50021525Y-48894876D01*
X50020135Y-48893671D01*
X50012452Y-48892000D01*
X49511947Y-48892000D01*
X49507376Y-48892165D01*
X49308383Y-48906604D01*
X49299374Y-48907918D01*
X49037908Y-48965644D01*
X49029178Y-48968247D01*
X48778785Y-49063112D01*
X48770524Y-49066947D01*
X48536448Y-49196965D01*
X48528823Y-49201955D01*
X48315971Y-49364398D01*
X48309144Y-49370438D01*
X48121974Y-49561904D01*
X48116093Y-49568863D01*
X47958518Y-49785348D01*
X47953698Y-49793094D01*
X47854008Y-49982573D01*
X47804589Y-50033546D01*
X47735457Y-50049709D01*
X47668560Y-50025930D01*
X47625140Y-49969759D01*
X47616500Y-49923906D01*
X47616500Y-48843866D01*
X47609745Y-48781684D01*
X47558615Y-48645295D01*
X47471261Y-48528739D01*
X47354705Y-48441385D01*
X47218316Y-48390255D01*
X47156134Y-48383500D01*
X43243866Y-48383500D01*
X43181684Y-48390255D01*
X43045295Y-48441385D01*
X42928739Y-48528739D01*
X42841385Y-48645295D01*
X42790255Y-48781684D01*
X42783500Y-48843866D01*
X42783500Y-52756134D01*
X40788500Y-52756134D01*
X40788500Y-44586134D01*
X42659500Y-44586134D01*
X42666255Y-44648316D01*
X42717385Y-44784705D01*
X42804739Y-44901261D01*
X42921295Y-44988615D01*
X43057684Y-45039745D01*
X43119866Y-45046500D01*
X44916134Y-45046500D01*
X44978316Y-45039745D01*
X45114705Y-44988615D01*
X45231261Y-44901261D01*
X45318615Y-44784705D01*
X45340799Y-44725529D01*
X45362598Y-44667382D01*
X45405240Y-44610618D01*
X45471802Y-44585918D01*
X45541150Y-44601126D01*
X45575817Y-44629114D01*
X45604250Y-44661938D01*
X45776126Y-44804632D01*
X45969000Y-44917338D01*
X46177692Y-44997030D01*
X46182760Y-44998061D01*
X46182763Y-44998062D01*
X46277862Y-45017410D01*
X46396597Y-45041567D01*
X46401772Y-45041757D01*
X46401774Y-45041757D01*
X46614673Y-45049564D01*
X46614677Y-45049564D01*
X46619837Y-45049753D01*
X46624957Y-45049097D01*
X46624959Y-45049097D01*
X46836288Y-45022025D01*
X46836289Y-45022025D01*
X46841416Y-45021368D01*
X46846366Y-45019883D01*
X47050429Y-44958661D01*
X47050434Y-44958659D01*
X47055384Y-44957174D01*
X47255994Y-44858896D01*
X47437860Y-44729173D01*
X47596096Y-44571489D01*
X47726453Y-44390077D01*
X47727776Y-44391028D01*
X47774645Y-44347857D01*
X47844580Y-44335625D01*
X47910026Y-44363144D01*
X47937875Y-44394994D01*
X47997987Y-44493088D01*
X48144250Y-44661938D01*
X48316126Y-44804632D01*
X48509000Y-44917338D01*
X48717692Y-44997030D01*
X48722760Y-44998061D01*
X48722763Y-44998062D01*
X48817862Y-45017410D01*
X48936597Y-45041567D01*
X48941772Y-45041757D01*
X48941774Y-45041757D01*
X49154673Y-45049564D01*
X49154677Y-45049564D01*
X49159837Y-45049753D01*
X49164957Y-45049097D01*
X49164959Y-45049097D01*
X49376288Y-45022025D01*
X49376289Y-45022025D01*
X49381416Y-45021368D01*
X49386366Y-45019883D01*
X49590429Y-44958661D01*
X49590434Y-44958659D01*
X49595384Y-44957174D01*
X49795994Y-44858896D01*
X49977860Y-44729173D01*
X50136096Y-44571489D01*
X50266453Y-44390077D01*
X50267776Y-44391028D01*
X50314645Y-44347857D01*
X50384580Y-44335625D01*
X50450026Y-44363144D01*
X50477875Y-44394994D01*
X50537987Y-44493088D01*
X50684250Y-44661938D01*
X50856126Y-44804632D01*
X51049000Y-44917338D01*
X51257692Y-44997030D01*
X51262760Y-44998061D01*
X51262763Y-44998062D01*
X51357862Y-45017410D01*
X51476597Y-45041567D01*
X51481772Y-45041757D01*
X51481774Y-45041757D01*
X51694673Y-45049564D01*
X51694677Y-45049564D01*
X51699837Y-45049753D01*
X51704957Y-45049097D01*
X51704959Y-45049097D01*
X51916288Y-45022025D01*
X51916289Y-45022025D01*
X51921416Y-45021368D01*
X51926366Y-45019883D01*
X52130429Y-44958661D01*
X52130434Y-44958659D01*
X52135384Y-44957174D01*
X52335994Y-44858896D01*
X52517860Y-44729173D01*
X52676096Y-44571489D01*
X52806453Y-44390077D01*
X52807640Y-44390930D01*
X52854960Y-44347362D01*
X52924897Y-44335145D01*
X52990338Y-44362678D01*
X53018166Y-44394511D01*
X53075694Y-44488388D01*
X53081777Y-44496699D01*
X53221213Y-44657667D01*
X53228580Y-44664883D01*
X53392434Y-44800916D01*
X53400881Y-44806831D01*
X53584756Y-44914279D01*
X53594042Y-44918729D01*
X53793001Y-44994703D01*
X53802899Y-44997579D01*
X53906250Y-45018606D01*
X53920299Y-45017410D01*
X53924000Y-45007065D01*
X53924000Y-45006517D01*
X54432000Y-45006517D01*
X54436064Y-45020359D01*
X54449478Y-45022393D01*
X54456184Y-45021534D01*
X54466262Y-45019392D01*
X54670255Y-44958191D01*
X54679842Y-44954433D01*
X54871095Y-44860739D01*
X54879945Y-44855464D01*
X55053328Y-44731792D01*
X55061200Y-44725139D01*
X55212052Y-44574812D01*
X55218730Y-44566965D01*
X55346022Y-44389819D01*
X55347279Y-44390722D01*
X55394373Y-44347362D01*
X55464311Y-44335145D01*
X55529751Y-44362678D01*
X55557579Y-44394511D01*
X55617987Y-44493088D01*
X55764250Y-44661938D01*
X55936126Y-44804632D01*
X56129000Y-44917338D01*
X56337692Y-44997030D01*
X56342760Y-44998061D01*
X56342763Y-44998062D01*
X56437862Y-45017410D01*
X56556597Y-45041567D01*
X56561772Y-45041757D01*
X56561774Y-45041757D01*
X56774673Y-45049564D01*
X56774677Y-45049564D01*
X56779837Y-45049753D01*
X56784957Y-45049097D01*
X56784959Y-45049097D01*
X56996288Y-45022025D01*
X56996289Y-45022025D01*
X57001416Y-45021368D01*
X57006366Y-45019883D01*
X57210429Y-44958661D01*
X57210434Y-44958659D01*
X57215384Y-44957174D01*
X57415994Y-44858896D01*
X57597860Y-44729173D01*
X57756096Y-44571489D01*
X57886453Y-44390077D01*
X57899995Y-44362678D01*
X57983136Y-44194453D01*
X57983137Y-44194451D01*
X57985430Y-44189811D01*
X58050370Y-43976069D01*
X58079529Y-43754590D01*
X58081156Y-43688000D01*
X58062852Y-43465361D01*
X58008431Y-43248702D01*
X57919354Y-43043840D01*
X57798014Y-42856277D01*
X57647670Y-42691051D01*
X57643619Y-42687852D01*
X57643615Y-42687848D01*
X57476414Y-42555800D01*
X57476410Y-42555798D01*
X57472359Y-42552598D01*
X57436028Y-42532542D01*
X57420136Y-42523769D01*
X57276789Y-42444638D01*
X57271920Y-42442914D01*
X57271916Y-42442912D01*
X57071087Y-42371795D01*
X57071083Y-42371794D01*
X57066212Y-42370069D01*
X57061119Y-42369162D01*
X57061116Y-42369161D01*
X56851373Y-42331800D01*
X56851367Y-42331799D01*
X56846284Y-42330894D01*
X56772452Y-42329992D01*
X56628081Y-42328228D01*
X56628079Y-42328228D01*
X56622911Y-42328165D01*
X56402091Y-42361955D01*
X56189756Y-42431357D01*
X55991607Y-42534507D01*
X55987474Y-42537610D01*
X55987471Y-42537612D01*
X55817100Y-42665530D01*
X55812965Y-42668635D01*
X55809393Y-42672373D01*
X55701729Y-42785037D01*
X55658629Y-42830138D01*
X55551204Y-42987618D01*
X55550898Y-42988066D01*
X55495987Y-43033069D01*
X55425462Y-43041240D01*
X55361715Y-43009986D01*
X55341018Y-42985502D01*
X55260426Y-42860926D01*
X55254136Y-42852757D01*
X55110806Y-42695240D01*
X55103273Y-42688215D01*
X54936139Y-42556222D01*
X54927552Y-42550517D01*
X54741117Y-42447599D01*
X54731705Y-42443369D01*
X54530959Y-42372280D01*
X54520988Y-42369646D01*
X54449837Y-42356972D01*
X54436540Y-42358432D01*
X54432000Y-42372989D01*
X54432000Y-45006517D01*
X53924000Y-45006517D01*
X53924000Y-42371102D01*
X53920082Y-42357758D01*
X53905806Y-42355771D01*
X53867324Y-42361660D01*
X53857288Y-42364051D01*
X53654868Y-42430212D01*
X53645359Y-42434209D01*
X53456463Y-42532542D01*
X53447738Y-42538036D01*
X53277433Y-42665905D01*
X53269726Y-42672748D01*
X53122590Y-42826717D01*
X53116109Y-42834722D01*
X53011498Y-42988074D01*
X52956587Y-43033076D01*
X52886062Y-43041247D01*
X52822315Y-43009993D01*
X52801618Y-42985509D01*
X52720822Y-42860617D01*
X52720820Y-42860614D01*
X52718014Y-42856277D01*
X52567670Y-42691051D01*
X52563619Y-42687852D01*
X52563615Y-42687848D01*
X52396414Y-42555800D01*
X52396410Y-42555798D01*
X52392359Y-42552598D01*
X52356028Y-42532542D01*
X52340136Y-42523769D01*
X52196789Y-42444638D01*
X52191920Y-42442914D01*
X52191916Y-42442912D01*
X51991087Y-42371795D01*
X51991083Y-42371794D01*
X51986212Y-42370069D01*
X51981119Y-42369162D01*
X51981116Y-42369161D01*
X51771373Y-42331800D01*
X51771367Y-42331799D01*
X51766284Y-42330894D01*
X51692452Y-42329992D01*
X51548081Y-42328228D01*
X51548079Y-42328228D01*
X51542911Y-42328165D01*
X51322091Y-42361955D01*
X51109756Y-42431357D01*
X50911607Y-42534507D01*
X50907474Y-42537610D01*
X50907471Y-42537612D01*
X50737100Y-42665530D01*
X50732965Y-42668635D01*
X50729393Y-42672373D01*
X50621729Y-42785037D01*
X50578629Y-42830138D01*
X50471201Y-42987621D01*
X50416293Y-43032621D01*
X50345768Y-43040792D01*
X50282021Y-43009538D01*
X50261324Y-42985054D01*
X50180822Y-42860617D01*
X50180820Y-42860614D01*
X50178014Y-42856277D01*
X50027670Y-42691051D01*
X50023619Y-42687852D01*
X50023615Y-42687848D01*
X49856414Y-42555800D01*
X49856410Y-42555798D01*
X49852359Y-42552598D01*
X49816028Y-42532542D01*
X49800136Y-42523769D01*
X49656789Y-42444638D01*
X49651920Y-42442914D01*
X49651916Y-42442912D01*
X49451087Y-42371795D01*
X49451083Y-42371794D01*
X49446212Y-42370069D01*
X49441119Y-42369162D01*
X49441116Y-42369161D01*
X49231373Y-42331800D01*
X49231367Y-42331799D01*
X49226284Y-42330894D01*
X49152452Y-42329992D01*
X49008081Y-42328228D01*
X49008079Y-42328228D01*
X49002911Y-42328165D01*
X48782091Y-42361955D01*
X48569756Y-42431357D01*
X48371607Y-42534507D01*
X48367474Y-42537610D01*
X48367471Y-42537612D01*
X48197100Y-42665530D01*
X48192965Y-42668635D01*
X48189393Y-42672373D01*
X48081729Y-42785037D01*
X48038629Y-42830138D01*
X47931201Y-42987621D01*
X47876293Y-43032621D01*
X47805768Y-43040792D01*
X47742021Y-43009538D01*
X47721324Y-42985054D01*
X47640822Y-42860617D01*
X47640820Y-42860614D01*
X47638014Y-42856277D01*
X47487670Y-42691051D01*
X47483619Y-42687852D01*
X47483615Y-42687848D01*
X47316414Y-42555800D01*
X47316410Y-42555798D01*
X47312359Y-42552598D01*
X47276028Y-42532542D01*
X47260136Y-42523769D01*
X47116789Y-42444638D01*
X47111920Y-42442914D01*
X47111916Y-42442912D01*
X46911087Y-42371795D01*
X46911083Y-42371794D01*
X46906212Y-42370069D01*
X46901119Y-42369162D01*
X46901116Y-42369161D01*
X46691373Y-42331800D01*
X46691367Y-42331799D01*
X46686284Y-42330894D01*
X46612452Y-42329992D01*
X46468081Y-42328228D01*
X46468079Y-42328228D01*
X46462911Y-42328165D01*
X46242091Y-42361955D01*
X46029756Y-42431357D01*
X45831607Y-42534507D01*
X45827474Y-42537610D01*
X45827471Y-42537612D01*
X45657100Y-42665530D01*
X45652965Y-42668635D01*
X45596537Y-42727684D01*
X45572283Y-42753064D01*
X45510759Y-42788494D01*
X45439846Y-42785037D01*
X45382060Y-42743791D01*
X45363207Y-42710243D01*
X45321767Y-42599703D01*
X45318615Y-42591295D01*
X45231261Y-42474739D01*
X45114705Y-42387385D01*
X44978316Y-42336255D01*
X44916134Y-42329500D01*
X43119866Y-42329500D01*
X43057684Y-42336255D01*
X42921295Y-42387385D01*
X42804739Y-42474739D01*
X42717385Y-42591295D01*
X42666255Y-42727684D01*
X42659500Y-42789866D01*
X42659500Y-44586134D01*
X40788500Y-44586134D01*
X40788500Y-41634500D01*
X40808502Y-41566379D01*
X40862158Y-41519886D01*
X40914500Y-41508500D01*
X73645500Y-41508500D01*
X73713621Y-41528502D01*
G37*
%TD.AperFunction*%
%TD*%
M02*
