M48
; DRILL file {KiCad (6.0.9-0)} date 2024 March 23, Saturday 13:32:28
; FORMAT={-:-/ absolute / inch / decimal}
; #@! TF.CreationDate,2024-03-23T13:32:28+01:00
; #@! TF.GenerationSoftware,Kicad,Pcbnew,(6.0.9-0)
; #@! TF.FileFunction,Plated,1,2,PTH
FMAT,2
INCH
; #@! TA.AperFunction,Plated,PTH,ViaDrill
T1C0.0118
; #@! TA.AperFunction,Plated,PTH,ComponentDrill
T2C0.0315
; #@! TA.AperFunction,Plated,PTH,ComponentDrill
T3C0.0354
; #@! TA.AperFunction,Plated,PTH,ComponentDrill
T4C0.0394
; #@! TA.AperFunction,Plated,PTH,ComponentDrill
T5C0.0630
%
G90
G05
T1
X1.65Y-1.73
X1.65Y-1.9
X1.65Y-2.5
X1.9Y-1.9
X2.4Y-1.9
X2.4Y-2.0
X2.4Y-2.1
X2.5Y-1.9
X2.5Y-2.0
X2.5Y-2.1
X2.63Y-1.8
X2.63Y-1.9
X2.63Y-2.0
X2.63Y-2.1
X2.63Y-2.2
X2.63Y-2.3
X2.8Y-1.8
X2.8Y-1.9
X2.8Y-2.0
X2.8Y-2.3
X2.8Y-2.5
X2.88Y-2.5
X2.9Y-1.8
X2.9Y-1.9
X2.9Y-2.0
T2
X2.46Y-2.185
X2.46Y-2.485
T3
X2.8457Y-2.135
X2.8457Y-2.235
T4
X1.733Y-1.72
X1.833Y-1.72
X1.933Y-1.72
X2.033Y-1.72
X2.133Y-1.72
X2.233Y-1.72
T5
G00X1.8031Y-2.0
M15
G01X1.7559Y-2.0
M16
G05
G00X1.8031Y-2.185
M15
G01X1.7559Y-2.185
M16
G05
G00X1.8031Y-2.3701
M15
G01X1.7559Y-2.3701
M16
G05
G00X2.0031Y-2.0
M15
G01X1.9559Y-2.0
M16
G05
G00X2.0031Y-2.185
M15
G01X1.9559Y-2.185
M16
G05
G00X2.0031Y-2.3701
M15
G01X1.9559Y-2.3701
M16
G05
G00X2.2031Y-2.0
M15
G01X2.1559Y-2.0
M16
G05
G00X2.2031Y-2.185
M15
G01X2.1559Y-2.185
M16
G05
G00X2.2031Y-2.3701
M15
G01X2.1559Y-2.3701
M16
G05
T0
M30
